# xmcd CD database file
#
# Track frame offsets:
#	150
#	15952
#	30792
#	41697
#	53647
#	64275
#	78527
#	92297
#	108340
#	125300
#	141335
#	152532
#	166367
#
# Disc length: 2426 seconds
#
# Revision: 1
# Processed by: cddbd v1.5.2PL0 Copyright (c) Steve Scherf et al.
# Submitted via: CDex 1.70beta2
#
DISCID=9309780d
DTITLE=Jan Hiermeyer - Jan Hiermeyer - Train Songs
DYEAR=1996
DGENRE=Country
TTITLE0=Ride The Train
TTITLE1=When The Train Comes In
TTITLE2=Fireball Mail
TTITLE3=One More Ride
TTITLE4=Wreck Of The Old 97
TTITLE5=Night Train To Memphis
TTITLE6=Waiting For A Train
TTITLE7=Cattanooga Choo Choo
TTITLE8=The City Of New Orleans
TTITLE9=Golden Rocket
TTITLE10=I've been To Georgia On A Fast Train
TTITLE11=Wabash Cannonball
TTITLE12=Nimm De Zug
EXTD=YEAR: 1996
EXTT0=
EXTT1=
EXTT2=
EXTT3=
EXTT4=
EXTT5=
EXTT6=
EXTT7=
EXTT8=
EXTT9=
EXTT10=
EXTT11=
EXTT12=
PLAYORDER=
